<svg width="12" height="12" viewBox="0 0 12 12" fill="none" xmlns="http://www.w3.org/2000/svg">
<path d="M8.16667 3.05176e-05H0.333333C0.133333 3.05176e-05 0 0.133364 0 0.333364V11.6667C0 11.8667 0.133333 12 0.333333 12H8.16667C8.36667 12 8.5 11.8667 8.5 11.6667V7.83336C8.5 7.63336 8.36667 7.50003 8.16667 7.50003C7.96667 7.50003 7.83333 7.63336 7.83333 7.83336V11.3334H0.666667V0.666697H7.83333V4.1667C7.83333 4.3667 7.96667 4.50003 8.16667 4.50003C8.36667 4.50003 8.5 4.3667 8.5 4.1667V0.333364C8.5 0.133364 8.33333 3.05176e-05 8.16667 3.05176e-05Z" fill="currentColor"/>
<path d="M11.7334 6.13336C11.7667 6.06669 11.7667 5.96669 11.7334 5.86669C11.7 5.83336 11.7 5.80003 11.6667 5.76669L9.76669 3.86669C9.63336 3.73336 9.43336 3.73336 9.30002 3.86669C9.16669 4.00003 9.16669 4.20003 9.30002 4.33336L10.6 5.63336H5.73336C5.53336 5.63336 5.40002 5.76669 5.40002 5.96669C5.40002 6.16669 5.53336 6.30003 5.73336 6.30003H10.6L9.30002 7.66669C9.16669 7.80003 9.16669 8.00003 9.30002 8.13336C9.43336 8.26669 9.63336 8.26669 9.76669 8.13336L11.6667 6.23336C11.6667 6.20003 11.7 6.16669 11.7334 6.13336Z" fill="currentColor"/>
</svg>
